
<svg style="position: absolute; width: 0; height: 0;" width="0" height="0" version="1.1" xmlns="http://www.w3.org/2000/svg" xmlns:xlink="http://www.w3.org/1999/xlink">
    <defs>
        <symbol id="logo" viewBox="0 0 3863 625">
            <title>qmedia</title>
            <path fill-rule="evenodd" clip-rule="evenodd" d="M1302.359,208.797c0,120.532,0,239.633,0,359.151c19.882,0,39.482,0,59.537,0
		c0,16.446,0,32.482,0,48.964c-60.035,0-120.099,0-180.565,0c0-15.971,0-32.043,0-48.754c19.605,0,39.321,0,59.312,0
		c0-139.555,0-278.477,0-418.046c-19.719,0-39.426,0-59.418,0c0-16.707,0-32.766,0-49.219c2.023-0.09,3.807-0.236,5.589-0.236
		c36.665-0.014,73.33,0.05,109.994-0.097c3.962-0.016,6.194,1.209,8.316,4.619c77.78,124.961,155.675,249.852,233.555,374.75
		c1.035,1.66,2.095,3.305,3.872,6.104c0-112.692,0-224.013,0-335.979c-19.686,0-39.395,0-59.315,0c0-16.708,0-32.77,0-49.119
		c60.243,0,120.183,0,180.62,0c0,16.067,0,32.121,0,48.745c-19.55,0-39.28,0-59.558,0c0,155.959,0,311.354,0,467.079
		c-1.742,0.241-2.992,0.562-4.242,0.565c-13.332,0.038-26.667-0.087-39.996,0.106c-3.245,0.047-4.68-1.521-6.181-3.941
		c-55.197-89.003-110.44-177.977-165.68-266.952c-27.576-44.418-55.155-88.833-82.743-133.244
		C1304.711,212.095,1303.855,210.963,1302.359,208.797z"/>
            <path fill-rule="evenodd" clip-rule="evenodd" d="M2781.543,149.843c-20.009,0-39.623,0-59.564,0c0-16.442,0-32.488,0-49.196
		c2.255,0,4.201,0,6.146,0c36.331,0,72.663,0.088,108.994-0.113c4.441-0.024,6.789,1.457,9.082,5.143
		c77.043,123.853,154.2,247.633,231.344,371.423c1.646,2.641,3.319,5.264,5.718,9.064c0-112.769,0-224.126,0-336.017
		c-19.608,0-39.171,0-59.172,0c0-16.562,0-32.6,0-49.07c60.07,0,120.134,0,180.589,0c0,16.008,0,32.08,0,48.699
		c-19.662,0-39.396,0-59.615,0c0,155.943,0,311.345,0,467.199c-2.039,0.147-3.627,0.359-5.216,0.362
		c-12.666,0.027-25.335-0.126-37.996,0.104c-3.676,0.066-5.632-1.295-7.505-4.318c-56.649-91.434-113.387-182.813-170.112-274.201
		c-25.816-41.591-51.635-83.182-77.461-124.767c-0.929-1.496-1.954-2.933-3.525-5.279c0,120.264,0,239.441,0,359.169
		c19.844,0,39.574,0,59.515,0c0,16.612,0,32.674,0,49.021c-60.246,0-120.186,0-180.621,0c0-16.075,0-32.129,0-48.754
		c19.555,0,39.287,0,59.4,0C2781.543,428.702,2781.543,289.657,2781.543,149.843z"/>
            <path fill-rule="evenodd" clip-rule="evenodd" d="M2139.41,149.914c-18.145,0-35.439,0-53.105,0c0-16.352,0-32.402,0-48.979
		c1.767-0.096,3.527-0.274,5.287-0.275c41.659-0.016,83.318,0.051,124.977-0.112c4.039-0.016,5.768,1.183,7.008,5.029
		c31.761,98.448,63.645,196.858,95.518,295.271c17.576,54.272,35.17,108.538,52.764,162.805c0.454,1.398,1.012,2.764,1.608,4.384
		c18.566,0,37.038,0,55.89,0c0,16.361,0,32.416,0,48.896c-57.961,0-115.838,0-174.07,0c0-16.098,0-32.163,0-48.702
		c17.467,0,34.891,0,52.738,0c-0.254-1.59-0.294-2.698-0.612-3.719c-9.956-31.911-19.96-63.808-29.882-95.729
		c-0.764-2.457-1.534-3.931-4.633-3.926c-57.822,0.106-115.646,0.086-173.468,0.102c-0.489,0-0.978,0.135-2.047,0.293
		c-10.806,33.931-21.679,68.07-32.746,102.82c19.03,0,37.446,0,56.144,0c0,16.531,0,32.589,0,48.965c-58.187,0-116.102,0-174.362,0
		c0-16.138,0-32.214,0-48.963c3.226,0,6.495,0,9.765,0c14.164-0.001,28.329-0.062,42.492,0.053c2.681,0.022,4.154-0.583,5.06-3.378
		c10.552-32.591,21.234-65.14,31.871-97.704c0.148-0.454,0.142-0.958,0.279-1.969c-14.188,0-28.229,0-42.607,0
		c0-16.566,0-32.62,0-49.428c2.035,0,3.963,0,5.892,0c16.33,0,32.661-0.103,48.99,0.081c3.462,0.039,4.894-1.14,5.949-4.372
		c27.934-85.526,55.973-171.018,83.981-256.519C2138.544,153.447,2138.853,152.009,2139.41,149.914z M2188.318,185.984
		c-0.373,0.073-0.747,0.146-1.121,0.219c-24.492,76.21-48.986,152.42-73.687,229.275c49.296,0,97.772,0,146.86,0
		C2236.267,338.702,2212.292,262.344,2188.318,185.984z"/>
            <path fill-rule="evenodd" clip-rule="evenodd" d="M838.928,357.434c0,2.256,0,4.081,0,5.906c0,74.994-0.045,149.988,0.115,224.982
		c0.01,4.401-1.432,6.247-5.34,7.965c-33.592,14.756-68.815,23.138-105.26,25.456c-24.707,1.572-49.693,2.847-74.309,0.989
		c-72.299-5.455-127.991-39.606-166.357-101.332c-20.794-33.456-32.705-70.204-38.32-108.976
		c-7.372-50.909-4.905-101.328,9.683-150.853c10.622-36.061,27.266-68.985,52.452-97.202c33.985-38.074,76.48-60.853,126.92-67.336
		c58.035-7.459,114.977-2.444,169.651,20.002c5.663,2.325,13.005,3.987,16.004,8.387c2.837,4.161,1.145,11.521,1.158,17.476
		c0.064,27.164,0.028,54.329,0.028,81.493c0,1.941,0,3.883,0,6.074c-19.006,0-37.274,0-56.134,0
		c-0.097-1.761-0.275-3.508-0.277-5.255c-0.021-18.165-0.033-36.331,0.009-54.496c0.006-2.474-0.123-4.222-3.188-5.186
		c-37.225-11.705-75.334-16.119-113.968-11.154c-50.785,6.525-88.128,33.618-112.726,78.326
		c-14.572,26.484-22.302,55.179-25.78,85.005c-4.788,41.054-3.207,81.813,7.674,121.903c8.005,29.493,20.971,56.425,41.968,79.049
		c22.457,24.196,50.154,39.368,82.617,43.963c40.9,5.789,81.747,3.458,121.945-6.525c10.136-2.518,8.102-1.509,8.117-10.491
		c0.079-44.163,0.036-88.326,0.036-132.489c0-1.808,0-3.616,0-6.002c-33.302,0-66.18,0-99.385,0c0-16.823,0-33.069,0-49.68
		C730.276,357.434,784.322,357.434,838.928,357.434z"/>
            <path fill-rule="evenodd" clip-rule="evenodd" d="M3456.317,149.981c0-16.789,0-32.737,0-48.994c135.442,0,270.64,0,406.128,0
		c0,16.271,0,32.202,0,48.727c-56.896,0-113.773,0-171.012,0c0,139.628,0,278.665,0,418.28c19.83,0,39.56,0,59.6,0
		c0,16.504,0,32.433,0,48.861c-60.85,0-121.705,0-182.975,0c0-16.039,0-32.094,0-48.715c19.779,0,39.519,0,59.561,0
		c0-139.599,0-278.636,0-418.159C3570.447,149.981,3513.541,149.981,3456.317,149.981z"/>
            <path fill-rule="evenodd" clip-rule="evenodd" d="M125.739,568.096c20.053,0,39.683,0,59.652,0c0,16.394,0,32.451,0,48.884
		c-61.062,0-121.931,0-183.061,0c0-16.188,0-32.139,0-48.668c19.627,0,39.346,0,59.4,0c0-139.625,0-278.674,0-418.3
		c-19.726,0-39.445,0-59.388,0c0-16.646,0-32.716,0-49.074c61.025,0,121.779,0,182.964,0c0,16.19,0,32.232,0,48.798
		c-19.698,0-39.443,0-59.568,0C125.739,289.303,125.739,428.352,125.739,568.096z"/>
            <path fill-rule="evenodd" clip-rule="evenodd" d="M185.471,3.098c0,16.223,0,32.144,0,48.448c-60.933,0-121.784,0-183.017,0
		c0-15.895,0-31.944,0-48.448C63.197,3.098,124.021,3.098,185.471,3.098z"/>
        </symbol>
        <symbol id="icon-search" viewBox="0 0 951 1024">
            <title>search</title>
            <path class="path1" d="M658.286 475.429q0-105.714-75.143-180.857t-180.857-75.143-180.857 75.143-75.143 180.857 75.143 180.857 180.857 75.143 180.857-75.143 75.143-180.857zM950.857 950.857q0 29.714-21.714 51.429t-51.429 21.714q-30.857 0-51.429-21.714l-196-195.429q-102.286 70.857-228 70.857-81.714 0-156.286-31.714t-128.571-85.714-85.714-128.571-31.714-156.286 31.714-156.286 85.714-128.571 128.571-85.714 156.286-31.714 156.286 31.714 128.571 85.714 85.714 128.571 31.714 156.286q0 125.714-70.857 228l196 196q21.143 21.143 21.143 51.429z"></path>
        </symbol>
        <symbol id="icon-feed" viewBox="0 0 805 1024">
            <title>feed</title>
            <path class="path1" d="M219.429 768q0 45.714-32 77.714t-77.714 32-77.714-32-32-77.714 32-77.714 77.714-32 77.714 32 32 77.714zM512 838.286q1.143 16-9.714 27.429-10.286 12-26.857 12h-77.143q-14.286 0-24.571-9.429t-11.429-23.714q-12.571-130.857-105.429-223.714t-223.714-105.429q-14.286-1.143-23.714-11.429t-9.429-24.571v-77.143q0-16.571 12-26.857 9.714-9.714 24.571-9.714h2.857q91.429 7.429 174.857 46t148 103.714q65.143 64.571 103.714 148t46 174.857zM804.571 839.429q1.143 15.429-10.286 26.857-10.286 11.429-26.286 11.429h-81.714q-14.857 0-25.429-10t-11.143-24.286q-6.857-122.857-57.714-233.429t-132.286-192-192-132.286-233.429-58.286q-14.286-0.571-24.286-11.143t-10-24.857v-81.714q0-16 11.429-26.286 10.286-10.286 25.143-10.286h1.714q149.714 7.429 286.571 68.571t243.143 168q106.857 106.286 168 243.143t68.571 286.571z"></path>
        </symbol>
        <symbol id="icon-twitter" viewBox="0 0 951 1024">
            <title>twitter</title>
            <path class="path1" d="M925.714 233.143q-38.286 56-92.571 95.429 0.571 8 0.571 24 0 74.286-21.714 148.286t-66 142-105.429 120.286-147.429 83.429-184.571 31.143q-154.857 0-283.429-82.857 20 2.286 44.571 2.286 128.571 0 229.143-78.857-60-1.143-107.429-36.857t-65.143-91.143q18.857 2.857 34.857 2.857 24.571 0 48.571-6.286-64-13.143-106-63.714t-42-117.429v-2.286q38.857 21.714 83.429 23.429-37.714-25.143-60-65.714t-22.286-88q0-50.286 25.143-93.143 69.143 85.143 168.286 136.286t212.286 56.857q-4.571-21.714-4.571-42.286 0-76.571 54-130.571t130.571-54q80 0 134.857 58.286 62.286-12 117.143-44.571-21.143 65.714-81.143 101.714 53.143-5.714 106.286-28.571z"></path>
        </symbol>
        <symbol id="icon-facebook" viewBox="0 0 585 1024">
            <title>facebook</title>
            <path class="path1" d="M548 6.857v150.857h-89.714q-49.143 0-66.286 20.571t-17.143 61.714v108h167.429l-22.286 169.143h-145.143v433.714h-174.857v-433.714h-145.714v-169.143h145.714v-124.571q0-106.286 59.429-164.857t158.286-58.571q84 0 130.286 6.857z"></path>
        </symbol>
        <symbol id="icon-arrow-right" viewBox="0 0 10 15">
            <title>arrow right</title>
            <g id="Page-1" stroke="none" stroke-width="1" fill="none" fill-rule="evenodd">
                <g id="arrow-right" transform="translate(1.000000, 1.000000)" fill="#000000">
                    <path d="M-0.132807423,0.573147717 L7.26719258,7.17314772 L7.34644661,7.25355339 L7.7,6.9 L7.36719258,6.52685228 L-0.0328074235,13.1268523 L0.632807423,13.8731477 L8.03280742,7.27314772 L8.42788659,6.92077981 L8.05355339,6.54644661 L7.95355339,6.44644661 L0.532807423,-0.173147717 L-0.132807423,0.573147717 L-0.132807423,0.573147717 Z" id="Shape"></path>
                </g>
            </g>
        </symbol>
        <symbol id="icon-arrow-left" viewBox="0 0 10 15">
            <title>arrow left</title>
            <g id="Page-1" stroke="none" stroke-width="1" fill="none" fill-rule="evenodd">
                <g id="arrow-left" transform="translate(5.000000, 7.500000) scale(-1, 1) translate(-5.000000, -7.500000)" fill="#000000">
                    <path d="M0.867192577,1.57314772 L8.26719258,8.17314772 L8.34644661,8.25355339 L8.7,7.9 L8.36719258,7.52685228 L0.967192577,14.1268523 L1.63280742,14.8731477 L9.03280742,8.27314772 L9.42788659,7.92077981 L9.05355339,7.54644661 L8.95355339,7.44644661 L1.53280742,0.826852283 L0.867192577,1.57314772 L0.867192577,1.57314772 Z" id="Shape"></path>
                </g>
            </g>
        </symbol>
        <symbol id="icon-envelope" viewBox="0 0 1024 1024">
            <title>envelope</title>
            <path class="path1" d="M1024 405.714v453.714q0 37.714-26.857 64.571t-64.571 26.857h-841.143q-37.714 0-64.571-26.857t-26.857-64.571v-453.714q25.143 28 57.714 49.714 206.857 140.571 284 197.143 32.571 24 52.857 37.429t54 27.429 62.857 14h1.143q29.143 0 62.857-14t54-27.429 52.857-37.429q97.143-70.286 284.571-197.143 32.571-22.286 57.143-49.714zM1024 237.714q0 45.143-28 86.286t-69.714 70.286q-214.857 149.143-267.429 185.714-5.714 4-24.286 17.429t-30.857 21.714-29.714 18.571-32.857 15.429-28.571 5.143h-1.143q-13.143 0-28.571-5.143t-32.857-15.429-29.714-18.571-30.857-21.714-24.286-17.429q-52-36.571-149.714-104.286t-117.143-81.429q-35.429-24-66.857-66t-31.429-78q0-44.571 23.714-74.286t67.714-29.714h841.143q37.143 0 64.286 26.857t27.143 64.571z"></path>
        </symbol>
        <symbol id="icon-arrow-right-2" viewBox="0 0 14.3 11">
            <title>arrow right 2</title>
            <g>
                <path d="M10.7,6.5H0V4.6h10.7L6.1,0h2.7l5.5,5.5L8.8,11H6.1L10.7,6.5z"/>
            </g>
        </symbol>
        <symbol id="icon-close" viewBox="0 0 64 64">
            <g>
                <path fill="#1D1D1B" d="M28.941,31.786L0.613,60.114c-0.787,0.787-0.787,2.062,0,2.849c0.393,0.394,0.909,0.59,1.424,0.59   c0.516,0,1.031-0.196,1.424-0.59l28.541-28.541l28.541,28.541c0.394,0.394,0.909,0.59,1.424,0.59c0.515,0,1.031-0.196,1.424-0.59   c0.787-0.787,0.787-2.062,0-2.849L35.064,31.786L63.41,3.438c0.787-0.787,0.787-2.062,0-2.849c-0.787-0.786-2.062-0.786-2.848,0   L32.003,29.15L3.441,0.59c-0.787-0.786-2.061-0.786-2.848,0c-0.787,0.787-0.787,2.062,0,2.849L28.941,31.786z"/>
            </g>
        </symbol>

    </defs>
</svg>
