<svg xmlns="http://www.w3.org/2000/svg" width="35" height="36">
    <path fill="#73CBD1" fill-rule="evenodd" d="M21.671 31.451v1.063c0 .844-.631 1.54-1.449 1.65l-.26.953c-.148.513-.631.88-1.151.88H16.21c-.557 0-1.04-.367-1.151-.88l-.261-.953a1.669 1.669 0 0 1-1.448-1.65v-1.063c0-.55.445-1.026 1.04-1.026h6.278c.557.037 1.003.476 1.003 1.026zm4.83-14.187a8.766 8.766 0 0 1-2.526 6.158 8.066 8.066 0 0 0-2.229 4.436 1.511 1.511 0 0 1-1.486 1.247h-5.573c-.743 0-1.375-.513-1.486-1.247a8.19 8.19 0 0 0-2.229-4.436c-1.523-1.576-2.489-3.702-2.526-6.048-.037-4.95 3.938-8.946 8.916-8.983 5.089-.035 9.139 3.96 9.139 8.873zm-7.987-5.353c0-.55-.446-.99-1.004-.99-3.566 0-6.501 2.86-6.501 6.416 0 .549.446.99 1.003.99a.993.993 0 0 0 1.003-.99c0-2.42 2.006-4.4 4.458-4.4.595-.036 1.041-.476 1.041-1.026zM17.51 4.496a.993.993 0 0 0 1.004-.99V.986c0-.55-.446-.99-1.004-.99a.993.993 0 0 0-1.003.99v2.52c0 .549.446.99 1.003.99zM4.585 17.264a.992.992 0 0 0-1.003-.99H1.016a.991.991 0 0 0-1.003.99c0 .55.445.989 1.003.989h2.566c.52 0 1.003-.439 1.003-.989zm29.42-.99h-2.566a.992.992 0 0 0-1.003.99c0 .55.446.989 1.003.989h2.566a.991.991 0 0 0 1.003-.989c.038-.551-.408-.99-1.003-.99zM6.628 26.585l-1.526 1.494a.986.986 0 0 0 0 1.429c.186.183.446.293.706.293.26 0 .52-.11.706-.293l1.526-1.493a.987.987 0 0 0 0-1.43c-.371-.366-1.003-.366-1.412 0zM27.687 8.234c.26 0 .52-.109.705-.293l1.527-1.492a.99.99 0 0 0 0-1.431 1.02 1.02 0 0 0-1.449 0l-1.526 1.493a.987.987 0 0 0 0 1.43c.223.184.483.293.743.293zM6.628 7.941c.186.184.446.293.706.293.26 0 .52-.109.706-.293a.987.987 0 0 0 0-1.43L6.514 5.018a1.02 1.02 0 0 0-1.449 0 .988.988 0 0 0 0 1.431l1.563 1.492zm21.764 18.644a1.018 1.018 0 0 0-1.448 0 .987.987 0 0 0 0 1.43l1.526 1.493c.186.183.446.293.706.293.26 0 .52-.11.706-.293a.987.987 0 0 0 0-1.429l-1.49-1.494z"/>
</svg>
