<svg xmlns="http://www.w3.org/2000/svg" width="28" height="25">
    <path fill="#7295C6" fill-rule="evenodd" d="M7.276 11.261c.539-1.924 1.616-3.755 3.231-5.495.539-.55.808-1.19.808-1.924 0-.777-.336-1.476-1.01-2.094C9.632 1.129 8.847.82 7.949.82c-.898 0-1.66.344-2.288 1.03C3.776 3.82 2.362 5.937 1.42 8.204.477 10.471.006 12.978.006 15.725c0 2.703.628 4.786 1.885 6.251 1.256 1.466 2.871 2.198 4.847 2.198 1.794 0 3.287-.641 4.476-1.923s1.784-2.862 1.784-4.74c0-1.739-.528-3.182-1.582-4.327-1.055-1.144-2.435-1.786-4.14-1.923zm15.011 0c.539-1.924 1.616-3.755 3.231-5.495.539-.55.808-1.19.808-1.924 0-.777-.336-1.476-1.009-2.094-.674-.619-1.459-.928-2.356-.928-.899 0-1.661.344-2.289 1.03-1.885 1.97-3.299 4.087-4.241 6.354-.942 2.267-1.414 4.774-1.414 7.521 0 2.703.628 4.786 1.885 6.251 1.256 1.466 2.872 2.198 4.847 2.198 1.794 0 3.287-.641 4.476-1.923s1.784-2.862 1.784-4.74c0-1.739-.528-3.182-1.582-4.327-1.055-1.144-2.435-1.786-4.14-1.923z"/>
</svg>
