<svg xmlns="http://www.w3.org/2000/svg" viewBox="0 0 308 44">
  <path id="LogoText" fill="#153877" fill-rule="evenodd" d="M237.037 23.93c.554 4.072 3.49 5.745 7.146 5.745 2.714 0 4.653-.613 7.09-2.175v5.689c-2.049 1.506-4.819 2.176-8.143 2.176-7.533 0-12.685-4.909-12.685-12.83 0-7.809 4.874-13.219 11.633-13.219 7.201 0 10.913 5.02 10.913 12.383v2.231h-15.954zm5.207-9.092c-2.271 0-4.21 1.45-4.986 4.573h9.362c-.166-2.677-1.662-4.573-4.376-4.573zm-18.618 19.969h-6.869V15.451h-4.708V9.873h4.708V3.124h6.869v6.749h5.263v5.578h-5.263v19.356zM202.494 19.97c0-2.623-1.33-4.407-4.044-4.407-2.105 0-3.933 1.283-4.487 3.458v15.786h-6.869V9.873h6.869v2.287c1.329-1.562 3.767-2.844 6.647-2.844 5.595 0 8.753 3.681 8.753 9.203v16.288h-6.869V19.97zm-28.118 9.705c2.715 0 4.653-.613 7.091-2.175v5.689c-2.05 1.506-4.82 2.176-8.143 2.176-7.534 0-12.686-4.909-12.686-12.83 0-7.809 4.875-13.219 11.633-13.219 7.201 0 10.913 5.02 10.913 12.383v2.231H167.23c.554 4.072 3.49 5.745 7.146 5.745zm2.437-10.264c-.166-2.677-1.661-4.573-4.376-4.573-2.271 0-4.21 1.45-4.985 4.573h9.361zm-21.503-3.569c-2.327 0-4.211 1.227-4.709 3.514v15.451h-6.869V9.873h6.869v2.455c1.052-1.785 3.102-3.012 5.539-3.012 1.164 0 2.216.223 2.604.446v6.916c-.942-.558-2.16-.836-3.434-.836zm-26.656 19.523c-2.659 0-5.097-1.283-6.204-2.622v11.268h-6.869V9.873h6.869v2.064c1.107-1.339 3.545-2.621 6.204-2.621 7.201 0 11.3 6.024 11.3 13.052s-4.099 12.997-11.3 12.997zm-1.551-20.025c-2.05 0-3.822 1.227-4.653 2.9v8.2c.831 1.729 2.659 2.901 4.653 2.901 3.711 0 5.927-3.013 5.927-6.973 0-4.016-2.216-7.028-5.927-7.028zM103.55 32.52c-1.385 1.562-3.767 2.845-6.648 2.845-5.539 0-8.697-3.682-8.697-9.204V9.873h6.869v14.893c0 2.622 1.274 4.407 3.989 4.407 2.105 0 3.933-1.283 4.431-3.458V9.873h6.925v24.934h-6.869V32.52zM81.896 15.842c-2.327 0-4.21 1.227-4.709 3.514v15.451h-6.869V9.873h6.869v2.455c1.053-1.785 3.103-3.012 5.54-3.012 1.163 0 2.216.223 2.603.446v6.916c-.941-.558-2.16-.836-3.434-.836zM57.6 29.675c2.715 0 4.654-.613 7.091-2.175v5.689c-2.05 1.506-4.819 2.176-8.143 2.176-7.534 0-12.686-4.909-12.686-12.83 0-7.809 4.875-13.219 11.633-13.219 7.202 0 10.913 5.02 10.913 12.383v2.231H50.454c.554 4.072 3.49 5.745 7.146 5.745zm2.438-10.264c-.166-2.677-1.662-4.573-4.376-4.573-2.272 0-4.21 1.45-4.986 4.573h9.362zM33.216 32.52c-1.385 1.562-3.766 2.845-6.647 2.845-5.54 0-8.697-3.682-8.697-9.204V9.873h6.869v14.893c0 2.622 1.274 4.407 3.988 4.407 2.105 0 3.933-1.283 4.432-3.458V9.873h6.924v24.934h-6.869V32.52zM11.563 15.842c-2.327 0-4.21 1.227-4.709 3.514v15.451H-.015V9.873h6.869v2.455c1.053-1.785 3.102-3.012 5.54-3.012 1.163 0 2.215.223 2.603.446v6.916c-.941-.558-2.16-.836-3.434-.836z"/>
  <path id="LogoNumber" fill="#54BF31" fill-rule="evenodd" d="M298.374 15.005h6.315l-1.274 7.028h4.598l-1.053 5.857h-4.542l-1.164 6.917h-6.315l1.164-6.917h-16.397v-.223L296.38.558h7.146l-13.184 21.475h6.758l1.274-7.028zm-31.951 13.61h11.301l-1.108 6.192h-23.654v-.223L265.26 21.42c2.825-3.012 7.367-7.028 7.367-11.268 0-2.119-1.329-3.626-4.099-3.626-3.767 0-7.866 2.622-10.58 4.798l1.274-7.308C262.047 1.673 266.368 0 270.689 0c5.927 0 9.195 3.514 9.195 8.367 0 5.801-4.21 10.431-8.309 14.838l-5.152 5.41z"/>
</svg>
