<svg xmlns="http://www.w3.org/2000/svg" viewBox="0 0 129.18 61.82">
  <defs>
    <clipPath id="a">
      <path fill="none" d="M0 .01h129.18v61.8H0z"/>
    </clipPath>
    <clipPath id="b">
      <path fill="none" d="M-3.94-1.27h134.1v66.19H-3.94z"/>
    </clipPath>
  </defs>
  <g clip-path="url(#a)">
    <path fill="#f68712" d="M66.3 4.37a14.89 14.89 0 1 1 0 21.06 14.88 14.88 0 0 1 0-21.06"/>
  </g>
  <path fill="#fff" d="M73 8.69V14l-8.37 3.85 11.75-.7 6.32 8.22-3.05-11.69L84 11.59l-7.06.16z"/>
  <g clip-path="url(#a)">
    <path fill="#fff" d="M79.07 9.79c.82.35 5.48-4.35.49-6.36a9.75 9.75 0 0 1-1.65 2.12c-.86.74.34 3.88 1.16 4.24"/>
    <path fill="#f68712" d="M22.63 59.57c.85 1.66-2.15 2.78-8.25 2C5.9 60.37-7 54.32 4.68 40.7c6.45-7.49 16.49-12.64 30.72-16.85a130.24 130.24 0 0 1 18.66-3.69C40 22.77 32.83 25 23 29.44 15.82 32.7 8.21 39 7.23 44.75c-2.16 12.6 12.37 8.86 15.4 14.82"/>
  </g>
  <path fill="#1c63b7" d="M36.34 45.31h-.22l-1.93 7.22h4.05zM33.27 40h6.15l6.33 21.12h-5.26L39.1 56h-5.7L32 61.14h-5zM46.75 40h4.72v21.14h-4.72zM54.1 40h4.72v21.14H54.1z"/>
  <g clip-path="url(#b)">
    <path fill="#1c63b7" d="M68.52 43.76c-1.71 0-2.73.63-2.73 1.77 0 .82.48 1.36 1.55 1.8L69 48a12.16 12.16 0 0 1 4.53 2.69A5.9 5.9 0 0 1 75 54.81c0 4-3 6.62-7.63 6.62a10.34 10.34 0 0 1-7-2.54L62 55.22a7 7 0 0 0 5.13 2.22c1.87 0 2.85-.7 2.85-2.06a1.84 1.84 0 0 0-.55-1.38 7.47 7.47 0 0 0-2.56-1.33c-2.66-1.14-3.83-1.84-4.78-2.89a5.19 5.19 0 0 1-1.33-3.7c0-3.8 2.94-6.37 7.34-6.37a9.81 9.81 0 0 1 4.66 1.11 10.9 10.9 0 0 1 1.93 1.33l-1.61 3.64a6.16 6.16 0 0 0-4.56-2.05M85 51.45c0-2.15-.67-3.2-2-3.2s-2.28 1.14-2.31 3.3H85zm4.24 8.23a9.14 9.14 0 0 1-1.33.76 11 11 0 0 1-4.59.92c-4.69 0-7.5-3-7.5-7.91 0-5.07 2.94-8.43 7.37-8.43s6.5 2.85 6.5 8.55v.92h-9.02C80.8 57 81.87 58 84.41 58a6.78 6.78 0 0 0 4-1.24zM102.48 59.75a7.25 7.25 0 0 1-1.17.76 7.57 7.57 0 0 1-3.65.85c-4.37 0-7.12-3.1-7.12-8s2.94-8.26 7.35-8.26a6.72 6.72 0 0 1 4.59 1.61l-.79 3.14a4 4 0 0 0-2.92-1.27c-2.15 0-3.23 1.58-3.23 4.84 0 3 1 4.56 3.08 4.56a5.39 5.39 0 0 0 3.16-1.13zM112.67 61.14v-1.87h-.19a5.12 5.12 0 0 1-4.31 2c-3 0-4.43-1.74-4.43-5.26v-10.7h4.75V55c0 1.3.09 1.77.44 2.18a1.56 1.56 0 0 0 1.23.48 2.42 2.42 0 0 0 2.32-1.55v-10.8h4.75v15.83zM119.68 61.14V45.31h4.5v2.09h.22a4.17 4.17 0 0 1 3.35-2.19 3.83 3.83 0 0 1 1.43.26v4.37a5.67 5.67 0 0 0-1.93-.35 3.75 3.75 0 0 0-2.79 1.11v10.54z"/>
  </g>
</svg>
