<svg xmlns="http://www.w3.org/2000/svg" viewBox="0 0 79.74 79.74">
  <g>
    <g>
      <path fill="#00008f" d="M0 0h79.74v79.74H0z"/>
      <path fill="#ff1721" d="M44.84 39.38h4.57L79.74 0h-4.48L44.84 39.38z"/>
      <path fill="#fff" d="M60.93 57c1.39 3.88 4.26 14 5.39 14.81h-7.51a13 13 0 0 0-.36-2.65c-.32-1.16-3-9.91-3-9.91H43.46l-1.87 2.66s2.25 7.06 2.39 7.41c.25.62 1.32 2.49 1.32 2.49h-7.2s-.19-1.08-.26-1.53-.68-2.35-.68-2.35a20.86 20.86 0 0 0-2.08 2.62c-.45.83-.65 1.26-.65 1.26h-5.64s-.18-1.08-.25-1.53-.75-2.51-.75-2.51a28.53 28.53 0 0 0-2 2.75c-.44.83-.64 1.29-.64 1.29h-5.6s1.57-1.5 2.13-2.14c.92-1.1 4.38-5.62 4.38-5.62l-1.38-4.8H12.82s-6.75 8.88-7 9.15a26.31 26.31 0 0 0-2.28 3.41H0v-2.28l.14-.13c.11-.08 5.12-6.31 9.73-12.4 4.14-5.36 8-10.56 8.36-11.06a34.28 34.28 0 0 0 2-3.79h6.13a27.2 27.2 0 0 0 .37 3c.15.51 3.89 12.76 4 12.89l2.06-2.64-3.53-10.94a21 21 0 0 0-1.09-2.35h7.15a6.4 6.4 0 0 0 .24 2c.29.89 1.82 6.43 1.82 6.43s4.88-6.12 5.17-6.56a3.93 3.93 0 0 0 .6-1.82h6a18.88 18.88 0 0 0-3 3.22l-6.94 8.82s.51 1.8.79 2.8c.07.26.12.44.12.46l.38-.46c1.62-2.06 9-11.76 9.46-12.59a17.06 17.06 0 0 0 1.21-2.26H57a14.57 14.57 0 0 0 .31 2.22zm-8.85-9.18c-.86 1.84-5.89 8-5.89 8h8s-1.58-4.82-1.84-5.9a8.63 8.63 0 0 1-.16-2.09c0-.09-.02-.25-.11-.05zm-30.6 0c-.86 1.84-5.89 8-5.89 8h8S22 51 21.75 49.92a8.63 8.63 0 0 1-.16-2.09c0-.09-.02-.25-.11-.05zm12 18.56l2.19-3c-.2-.21-1.44-4-1.44-4l-2.13 2.74z"/>
    </g>
  </g>
</svg>
