<svg xmlns="http://www.w3.org/2000/svg" viewBox="0 0 545.73 157.95">
  <g>
    <g fill="#00adef">
      <path fill-rule="evenodd" d="M20.38 51.39h22.19c8.69 0 14.66 3.76 14.66 13.23s-7 12.2-15 12.2H20.38zM0 92.65h44.9c16.74 0 32.7-8 32.7-26.86 0-11.55-5.71-20.25-17-23.49 8.05-3.89 12.59-10.25 12.59-19.3 0-17.26-11.94-23-29.58-23H0zm20.38-76.82h19.07c7.27 0 14 1.82 14 10.64 0 7.79-5.32 11-12.46 11H20.38z"/>
      <path fill-rule="evenodd" d="M126.38 66.7c0 4-.52 15.44-14.92 15.44-6 0-11.29-1.69-11.29-8.57s5.19-8.69 10.9-9.86 12.2-1.16 15.31-3.89zm-24.14-20.51c.65-7.26 5.19-10.12 12.2-10.12 6.49 0 11.94 1.17 11.94 9.09 0 7.52-10.51 7.13-21.8 8.82s-22.84 5.19-22.84 20.37c0 13.76 10.12 20.12 22.84 20.12 8.17 0 16.74-2.21 22.58-8.31a27.77 27.77 0 0 0 1.29 6.49h18.69c-1.69-2.72-2.33-8.82-2.33-14.92V42.82c0-16.09-16.1-19.07-29.46-19.07-15.06 0-30.5 5.19-31.53 22.44z"/>
      <path d="M154.28 92.65h18.42V62.42c0-11.81 4.68-21.54 18.17-21.54a34.41 34.41 0 0 1 6.62.64V24.39a13.69 13.69 0 0 0-4-.64c-9 0-18 5.83-21.41 14.27h-.26V25.56h-17.54z"/>
      <path d="M200.46 92.65h18.43V53.72c0-13.11 8.82-15.44 12.46-15.44 11.68 0 11.16 8.95 11.16 16.74v37.63h18.43V55.28c0-8.43 1.94-17 12.32-17s11.29 7.4 11.29 16.35v38H303V47.75c0-17.39-10.25-24-24.53-24a24.38 24.38 0 0 0-20.26 11.15c-3.63-8-11.16-11.15-19.6-11.15a24.22 24.22 0 0 0-20.5 10.9h-.26v-9.09h-17.39z"/>
      <path fill-rule="evenodd" d="M376.28 63.58c1.3-20.63-9.73-39.84-32.57-39.84-20.37 0-34.26 15.32-34.26 35.43 0 20.76 13.11 35.3 34.26 35.3 15.18 0 26.21-6.75 31.4-22.58h-16.22c-1.17 4.15-7.13 8.69-14.53 8.69-10.25 0-16-5.32-16.48-17zm-48.4-11.67c.26-5.2 3.63-14.28 15.31-14.28 9 0 13 4.93 14.67 14.28z"/>
      <path d="M382.38 92.65h18.43V57.49c0-13.63 4.28-19.21 14.27-19.21 8.57 0 11.81 5.45 11.81 16.48v37.89h18.43V51.39c0-16.61-4.93-27.64-24.53-27.64a23.93 23.93 0 0 0-20.5 11.15h-.39v-9.34h-17.52z"/>
      <path fill-rule="evenodd" d="M455 92.65h18.43V25.56H455zM473.46 0H455v15.18h18.43z"/>
      <path fill-rule="evenodd" d="M525 66.7c0 4-.52 15.44-14.92 15.44-6 0-11.29-1.69-11.29-8.57s5.19-8.69 10.9-9.86 12.2-1.16 15.31-3.89zm-24.17-20.51c.64-7.26 5.18-10.12 12.2-10.12 6.48 0 11.93 1.17 11.93 9.09 0 7.52-10.51 7.13-21.8 8.82s-22.84 5.19-22.84 20.37c0 13.76 10.12 20.12 22.84 20.12 8.18 0 16.74-2.21 22.58-8.31a27.28 27.28 0 0 0 1.3 6.49h18.69c-1.69-2.72-2.34-8.82-2.34-14.92V42.82c0-16.09-16.09-19.07-29.46-19.07-15 0-30.49 5.19-31.53 22.44z"/>
      <path fill-rule="evenodd" d="M326.17 133.82c.58-9.13-4.3-17.62-14.4-17.62-9 0-15.15 6.77-15.15 15.66 0 9.19 5.8 15.61 15.15 15.61 6.71 0 11.59-3 13.89-10h-7.18c-.51 1.84-3.15 3.84-6.42 3.84-4.54 0-7.06-2.35-7.29-7.51zm-21.4-5.17a6.41 6.41 0 0 1 6.77-6.31c4 0 5.74 2.18 6.48 6.31z"/>
      <path fill-rule="evenodd" d="M472.23 133.8c.57-9.13-4.3-17.62-14.4-17.62-9 0-15.15 6.77-15.15 15.67 0 9.18 5.79 15.6 15.15 15.6 6.71 0 11.59-3 13.88-10h-7.17c-.51 1.84-3.16 3.85-6.43 3.85-4.53 0-7.05-2.36-7.28-7.52zm-21.4-5.17a6.41 6.41 0 0 1 6.76-6.31c4 0 5.74 2.18 6.49 6.31z"/>
      <path fill-rule="evenodd" d="M173.2 133.85c.57-9.13-4.31-17.62-14.41-17.62-9 0-15.15 6.77-15.15 15.67 0 9.18 5.8 15.61 15.15 15.61 6.72 0 11.59-3 13.89-10h-7.17c-.52 1.84-3.16 3.85-6.43 3.85-4.54 0-7.06-2.36-7.29-7.52zm-21.41-5.16a6.42 6.42 0 0 1 6.77-6.32c4 0 5.74 2.18 6.48 6.32z"/>
      <path d="M148.1 105.78l-13.59 40.93h-10.14l-13.3-40.93h9.28l9.12 28.78 9.34-28.78z"/>
      <path d="M194.71 121.77v2.36a25.5 25.5 0 0 0-2.93-.29c-6 0-8 4.3-8 9.52v13.35h-8.14v-29.64h7.73v5.51a10.78 10.78 0 0 1 9.58-6.31 6.2 6.2 0 0 1 1.78.29z"/>
      <path d="M195.43 122c1.85-4.43 7.08-5.69 12.2-5.69 6.47 0 12.44 2.18 13.07 9.46H213c-.23-3.15-2.64-4-5.56-4-1.84 0-4.53.34-4.53 2.75 0 2.92 4.59 3.32 9.23 4.41s9.4 2.81 9.4 8.32c0 7.79-6.77 10.32-13.53 10.32s-13.59-2.59-13.93-10.44h7.74c.06 3.56 3 5 6.25 5 2.35 0 5.33-.92 5.33-3.79 0-2.46-3.39-3.32-9.23-4.58-4.7-1-9.4-2.7-9.4-7.91v-.88a9 9 0 0 1 .67-3"/>
      <path d="M224 117.07h8.15v29.64H224zm8.14-4.58H224v-6.71h8.14z"/>
      <path d="M264.31 127.51h-8c-.52-3.33-2.64-5.1-6-5.1-5.22 0-6.94 5.27-6.94 9.63s1.67 9.34 6.77 9.34c3.78 0 6-2.41 6.47-6h7.86c-1 7.86-6.48 12.15-14.27 12.15-9 0-15-6.3-15-15.19 0-9.23 5.5-16 15.14-16 7 0 13.41 3.67 13.93 11.24"/>
      <path d="M266.63 146.71v-40.93h8.14v15.42a10.94 10.94 0 0 1 8.83-4.93c8.65 0 10.83 4.87 10.83 12.21v18.23h-8.14V130c0-4.87-1.43-7.28-5.22-7.28-4.41 0-6.3 2.47-6.3 8.48v15.54z"/>
      <path d="M328.65 146.71v-29.64h7.73v5.51a10.78 10.78 0 0 1 9.58-6.31 6.2 6.2 0 0 1 1.78.29v7.56a15.1 15.1 0 0 0-2.93-.28c-6 0-8 4.3-8 9.51v13.36z"/>
      <path d="M380.05 146.71v-29.64h7.74v4.13a11.09 11.09 0 0 1 9.23-4.93c8.66 0 10.84 4.87 10.84 12.21v18.23h-8.14V130c0-4.87-1.43-7.28-5.22-7.28-4.41 0-6.3 2.47-6.3 8.48v15.54z"/>
      <path d="M474.66 146.71v-29.64h7.74v4.13a11.08 11.08 0 0 1 9.23-4.93c8.65 0 10.84 4.87 10.84 12.21v18.23h-8.15V130c0-4.87-1.43-7.28-5.21-7.28-4.42 0-6.31 2.47-6.31 8.48v15.54z"/>
      <path d="M376.34 117v29.64h-7.74v-4.12a11.09 11.09 0 0 1-9.23 4.93c-8.65 0-10.84-4.88-10.84-12.21V117h8.14v16.75c0 4.87 1.44 7.27 5.22 7.27 4.42 0 6.31-2.46 6.31-8.48V117z"/>
      <path fill-rule="evenodd" d="M418.09 130.84c0 4.28 1.64 9.62 7.33 9.62 5.22 0 7.66-4.49 7.66-8.93 0-4.9-1.73-9.85-7.66-9.85-5.22 0-7.33 4.61-7.33 9.16m22-13.76v27.74c0 4.87-1.71 13.13-15.36 13.13-5.84 0-12.66-2.75-13.07-9.52h8.08c.75 3 3.21 4.07 6.08 4.07 4.53 0 6.6-3.09 6.54-7.34v-3.89a10.35 10.35 0 0 1-9 4.58c-8.89 0-12.67-6.76-12.67-14.9 0-7.69 4.41-14.68 12.72-14.68 3.9 0 6.88 1.32 8.83 4.76l.12-4z"/>
    </g>
  </g>
</svg>
