<svg xmlns="http://www.w3.org/2000/svg" xmlns:xlink="http://www.w3.org/1999/xlink" viewBox="0 0 1006.74 263.21">
  <defs>
    <clipPath id="b5ba7832-5c8c-4c20-96b6-6a40d40702c2">
      <rect x="-2215.87" width="3222.61" height="4560.53" style="fill:none"/>
    </clipPath>
  </defs>
  <title>
    cosmosdirekt
  </title>
  <g>
    <g style="clip-path:url(#b5ba7832-5c8c-4c20-96b6-6a40d40702c2)">
      <g>
        <path d="M0-52.2H1078.51V263.21H212V93.63H0V-52.2" style="fill:#003d73"/>
        <path d="M0,93.57,212,263.23V93.57Zm926.17,86.52c-6,0-10.69,4.3-10.69,10.29a10.56,10.56,0,1,0,21.12,0v0a10.23,10.23,0,0,0-10.17-10.29h-.26Z" style="fill:#bdd747"/>
        <path d="M825.74,130.8V140h6.37v50.24h-6.5v9.34h22.07v-9.34h-5.15V177.92L855,190.25v9.34h17.74v-9.34h-4.47l-14.49-13.82,14-12.05h5v-9.2H853.1v9.2h3l-13.54,11.11V130.8ZM326.23,133c-19,0-33.44,13.64-33.44,34,0,19.53,14.46,34,34.25,34,14.13,0,25.42-8.58,29-22.47H344.65c-4,8-9.31,11.5-17.61,11.5-13.13,0-22.07-9.21-22.07-23s8.94-23,22.07-23c8.12,0,14.15,4.28,16.79,12.18h9.75v-21.8h-9.75l.27,5.42C340.46,135.47,334.07,133,326.23,133Zm314.41,1.35v9.07h6.91v47.26h-6.91v9.07h26.27c24.26,0,36.83-11.69,36.83-32.76s-12.57-32.64-36.83-32.64Zm244.14,4.88v15.7h-7.31v9.35h7.31v23.83c0,9.42,1.26,11.91,11.1,11.91a61.47,61.47,0,0,0,7.18-.4v-8.8a10.57,10.57,0,0,1-1.49.13c-5.83,0-6.23-.32-6.23-8.39V164.25h7.72V154.9h-7.72V139.2Zm-225.45,4.19h8c16,0,24.37,8.21,24.37,23.57s-8.32,23.69-24.37,23.69h-8ZM385.4,153.82A23,23,0,0,0,362,176.41q0,.42,0,.84c0,13.07,9.93,23.29,23.42,23.29,13.68,0,23.43-10.32,23.43-23.29S399.08,153.82,385.4,153.82Zm46,0c-9.21,0-15.43,5.22-15.43,13.68,0,7.49,4.46,11.8,13.67,13.54l7,1.22c4.47.86,7.45,1.55,7.45,5,0,3-2.35,5.28-6.36,5.28-6.39,0-10.91-3-13-8.53h-8.26v15.57h7.85l.14-3.25a24.16,24.16,0,0,0,13.81,4.47c10,0,16.11-6.3,16.11-14.09s-4.91-11.88-14.76-13.81l-4.62-.8c-6-1.15-8.93-1.65-8.93-5.69,0-2.69,2.57-4.6,6.77-4.6a9.84,9.84,0,0,1,10,7.31h8.53V154.9h-8V158c-2.75-2.77-6.91-4.18-11.93-4.18Zm58.23,0c-4,.53-8.19,3-11.78,7.18v-6.1H461.37v9.35h5.95v26h-5.95v9.34h22.34v-9.34h-6.1V171c2.56-4.42,5.7-6.77,9.35-6.77,6.29,0,7.31,3.43,7.31,10.15v15.85h-6.09v9.34h22.34v-9.34h-6.09V169.39c2.82-3.36,6-5.14,9.47-5.14,6.12,0,7.18,3.52,7.18,10.15v15.85H515v9.34h22.34v-9.34h-6V169.39c0-10.48-4-15.57-13.54-15.57-5.93,0-10.47,2.51-14.49,8-2.09-5.29-6.08-8-11.91-8a16.64,16.64,0,0,0-1.73,0Zm75,0a23.11,23.11,0,0,0-23.56,22.65v.78c0,13.07,10.06,23.29,23.56,23.29,13.68,0,23.43-10.32,23.43-23.29s-9.7-23.43-23.38-23.43Zm46.17,0c-9.2,0-15.43,5.22-15.43,13.68,0,7.49,4.46,11.8,13.67,13.54l7,1.22c4.46.86,7.31,1.55,7.31,5,0,3-2.35,5.28-6.37,5.28-6.38,0-10.76-3-12.86-8.53h-8.4v15.57h8l.14-3.25a24.18,24.18,0,0,0,13.81,4.47c10,0,16.11-6.3,16.11-14.09s-4.9-11.88-14.76-13.81l-4.87-.81c-6-1.15-8.8-1.65-8.8-5.69,0-2.69,2.44-4.6,6.63-4.6a9.84,9.84,0,0,1,10,7.31h8.67V154.9h-8l-.14,3.12c-2.62-2.79-6.63-4.2-11.66-4.2Zm188.35,0c-13.49,0-23.29,9.72-23.29,23.56s9.11,23.43,23.43,23.43c11.22,0,18.79-5.32,21.26-14.36H810.17c-2,3-5.72,4.74-10.56,4.74-7.57,0-12.13-3.73-12.86-10.56h35.07v-1.22c0-15.67-9.12-25.59-22.62-25.59Zm-28.7,1a18.31,18.31,0,0,0-13,6.5,9.4,9.4,0,0,0-1.08,1.35V155H739.9v9.21h6v26h-6v9.34h22.47v-9.34h-6V173.32a12,12,0,0,1,9.34-6.91,25.33,25.33,0,0,1,6.09.14V154.77c-.43,0-.87,0-1.3,0Zm-59.17.13v9.35h6.36v26h-6.5v9.34h23.15V190.3H728.2V154.9Zm87.6,8.4c6.2,0,10.32,3.19,12,9.34H786.34c1.46-6,6.21-9.39,12.59-9.39Zm-413.53.14c6.94,0,12.6,5.54,12.6,13.81S392.19,191,385.35,191,373,185.32,373,177.25s5.48-13.81,12.4-13.81Zm179.28,0c6.93,0,12.46,5.54,12.46,13.81S571.47,191,564.63,191,552,185.37,552,177.3s5.71-13.86,12.64-13.86Z" style="fill:#fff"/>
      </g>
    </g>
  </g>
</svg>
