<svg xmlns="http://www.w3.org/2000/svg" viewBox="0 0 849 391">
  <path fill="#008746" d="M849 .3v390.4H35.1c-22.06 0-41.6-8.84-31.68-39.39l97.88-301.4C110.5 23.28 133.7.32 160.7.32z"/>
  <path fill="#fff" d="M672.4 179.8l40.44 74.85h-34.13L652 204.51l-14.37 17.6v32.53h-34v-118h34v49l36.77-49h33.41zm-216.8 74.85h-82.27v-118h78.21v20h-45.26v25.15h43.78v19.6h-43.8v29.95h49.34zm97.22 0h-49.31l-33.08-118h35.27l22.78 95.82 25.28-95.82h32.15zm-312.3 0V136.47h52.6c12.72 0 32.73.13 44.23 12.72 11.28 12.35 12.21 34 12.21 46.05 0 50.55-26.27 59.45-60.59 59.45zm46-21.32a54.94 54.94 0 0 0 12-1.22c13.06-3.14 16.32-11.8 17.65-21a104 104 0 0 0 1.11-16.32 101.85 101.85 0 0 0-1.28-18.18c-.79-5-2.51-10.17-5.83-13.78-6.13-6.66-15.76-6.51-22.54-6.51h-12.6v77c3.83.06 7.67.13 11.49.06z"/>
</svg>
