<svg xmlns="http://www.w3.org/2000/svg" viewBox="0 0 1000.53 391.12">
  <path fill="#f37021" d="M569 261.51h358.7v-.18a77.74 77.74 0 0 0 72.44-77.57V0H717.43z"/>
  <path fill="#fff" fill-rule="evenodd" d="M905.09 151.82h-34.61l34.16-62.65h.45v62.65zm35.28-107.21H899.2l-63.1 109.47v25.56h69v40.93h35.28v-40.93h21.94v-27.82h-22zM823 190.72h-80.25c34.6-42.48 80.74-51.56 80.74-97.48 0-27.6-17.87-51.34-57.67-51.34-32.35 0-57.68 18.32-58.81 52l33.25 5.88c2.49-15.54 8.37-30.07 26.74-30.07 12.67 0 20.36 9.74 20.36 22 0 30.53-43.2 45.69-80.3 91.59v37.32H823z"/>
  <path fill="#0071bc" d="M141.55.24c44.59 2.93 71.35 40.91 71.35 74.51 0 13.15-7.44 23.38-13.38 42.37h99.59V.24h25.26v116.88H415V.24h83.24V147.8c.07.31 0 14.61 0 14.61L580 .24h87.7L517.59 261.75H415V142h-90.63v119.75h-25.26V142H201l-1.48 1.45 68.37 118.34h-92.16l-69.86-127.1c23.78-11.69 28.25-17.53 28.25-35.06 0-21.92-20.44-33.43-35.3-33.43a107.42 107.42 0 0 0-12.27 1.28v194.27H3.31V.24z"/>
  <path fill="#0071bc" fill-rule="evenodd" d="M999.3 365.09h-12.47q-1.64 7.57-6.75 11.28t-13.14 3.71a26.12 26.12 0 0 1-10.83-2.08 21.18 21.18 0 0 1-7.57-5.57 21.65 21.65 0 0 1-4.3-8 30.06 30.06 0 0 1-1.19-9.57h57.44a61.41 61.41 0 0 0-1.26-14.69 42.7 42.7 0 0 0-5.65-14.25 33.56 33.56 0 0 0-10.83-10.77q-6.75-4.21-17-4.22a34.83 34.83 0 0 0-14.47 3 33.89 33.89 0 0 0-11.42 8.3 38.23 38.23 0 0 0-7.5 12.62 46.12 46.12 0 0 0-2.67 16 61.65 61.65 0 0 0 2.59 16.15 35.39 35.39 0 0 0 6.91 12.76 31.14 31.14 0 0 0 11.35 8.31 39.55 39.55 0 0 0 16 3q13.05 0 21.67-6.53t11.13-19.45m-12.18-21.37h-44.11a26.08 26.08 0 0 1 1.92-8.39 22.69 22.69 0 0 1 4.45-6.9 20.29 20.29 0 0 1 6.76-4.67 21.92 21.92 0 0 1 8.83-1.71 21.43 21.43 0 0 1 20.11 13.15 25.76 25.76 0 0 1 2 8.47m-94.41 45.71h12.61v-106h-12.61v39.52h-.29a20.79 20.79 0 0 0-5.12-5.7 29 29 0 0 0-6.46-3.7 32 32 0 0 0-6.83-2 37.94 37.94 0 0 0-6.38-.58 34.92 34.92 0 0 0-15.36 3.18 31.39 31.39 0 0 0-11 8.62 36.36 36.36 0 0 0-6.53 12.68 54.17 54.17 0 0 0-2.15 15.44 52.57 52.57 0 0 0 2.23 15.36 37.93 37.93 0 0 0 6.61 12.8 32 32 0 0 0 11 8.76 34.62 34.62 0 0 0 15.51 3.24 37.43 37.43 0 0 0 14.7-2.83 18.63 18.63 0 0 0 9.8-9.2h.29v10.43zM846 351.73a50.22 50.22 0 0 1 1.19-11 29.11 29.11 0 0 1 3.81-9.49 20.14 20.14 0 0 1 7.13-6.69 21.86 21.86 0 0 1 10.87-2.5 23.57 23.57 0 0 1 11.13 2.44 21.78 21.78 0 0 1 7.49 6.46 27 27 0 0 1 4.23 9.28 44.81 44.81 0 0 1 .08 21.44 27.8 27.8 0 0 1-4.08 9.29 20.85 20.85 0 0 1-18.11 9.12 22.67 22.67 0 0 1-10.61-2.37 21.19 21.19 0 0 1-7.43-6.39 28.13 28.13 0 0 1-4.3-9.13 39 39 0 0 1-1.4-10.46M803.74 373h-16.53v16.47h16.48zm-44.17-19.29h-14.3l.06-69.27-8.33-.15-49.81 68.43v12.17h46.16v24.64h11.88v-24.74h14.25v-11.13zm-26.12-51.5v51.5h-35.38l35-51.5zm-135.73 19.24h12.62a35.57 35.57 0 0 1 1-9.42 25.2 25.2 0 0 1 3.63-8.39 20.12 20.12 0 0 1 6.45-6 18.48 18.48 0 0 1 9.43-2.29 23.21 23.21 0 0 1 7.87 1.34 18.66 18.66 0 0 1 6.46 3.86 18.92 18.92 0 0 1 4.37 6 18.1 18.1 0 0 1 1.64 7.8 25 25 0 0 1-1.71 9.65 25.38 25.38 0 0 1-5 7.72 53.86 53.86 0 0 1-8.39 7q-5 3.48-11.73 7.65a121 121 0 0 0-10.53 7 49.61 49.61 0 0 0-9.06 8.61 42.39 42.39 0 0 0-6.6 11.51 55.83 55.83 0 0 0-3.35 15.95h68.73V378.3h-54a19.75 19.75 0 0 1 3.79-8.68 39.92 39.92 0 0 1 7-7.05 75.35 75.35 0 0 1 9-6.16q4.89-2.9 9.79-5.86 4.9-3.14 9.51-6.53a47.64 47.64 0 0 0 8.15-7.65 34.74 34.74 0 0 0 5.72-9.58 32.77 32.77 0 0 0 2.15-12.31 30.79 30.79 0 0 0-2.6-13.07c-1.72-3.75-2.79-5.69-5.11-8.22a26.77 26.77 0 0 0-10.53-7 40.65 40.65 0 0 0-12.85-2c-5.53 0-11.09.67-15.45 2.55s-9.24 4.74-12.16 8.06a31.33 31.33 0 0 0-6.45 11.8 42.54 42.54 0 0 0-1.64 14.84m-67.84 68h13.51l28.06-76.74h-13.36l-20.93 64H537l-21.52-64h-14.1l28.5 76.74zm-80.32-76.74h-12v76.74h12.59V355.3a52.91 52.91 0 0 1 1.48-13.15 25 25 0 0 1 4.76-9.72 20.24 20.24 0 0 1 8.6-6.08 35.76 35.76 0 0 1 12.92-2.11v-13.33q-10.26-.29-16.92 4.16t-11.29 13.8h-.29v-16.18zM401 373h-16.59v16.47h16.47zm-76.82 16.48h13.37l24.48-76.74h-13.18l-17.21 62.79h-.31l-16-62.79H301.5l-15.43 62.79h-.3l-17.36-62.83h-14l24.64 76.74h13.66l15.42-61h.31l15.58 61zm-129.09 0h13.37L233 312.7h-13.24l-17.21 62.79h-.3l-16-62.79h-13.84L157 375.48h-.3l-17.36-62.79h-14L150 389.43h13.66l15.44-61h.29l15.59 61zm-125.36 0H83l24.48-76.74H94.4l-17.21 62.74h-.31l-16-62.79H47.05l-15.43 62.79h-.3L14 312.69H0l24.64 76.74H38.3l15.43-61H54l15.58 61z"/>
</svg>
