<svg id="e3f1295f-d0a5-4213-adc7-d2ecf02f07bf" data-name="svg2" xmlns="http://www.w3.org/2000/svg" xmlns:xlink="http://www.w3.org/1999/xlink" viewBox="0 0 480 80.56">
  <defs>
    <clipPath id="b4757cf0-9fd3-4b97-8bad-426c3a4d14e0" transform="translate(0 0)">
      <rect x="-29.15" y="-10.6" width="598.8" height="162.95" style="fill:none"/>
    </clipPath>
    <clipPath id="e84a8444-b9f0-4df6-a3cc-964108435634" transform="translate(0 0)">
      <rect x="-859.44" y="-1949" width="1503.12" height="2125.84" style="fill:none"/>
    </clipPath>
    <clipPath id="bd8856c9-fee7-4150-95b7-25d800917ee3" transform="translate(0 0)">
      <rect x="-859.37" y="-1951.4" width="1503.08" height="2125.92" style="fill:none"/>
    </clipPath>
  </defs>
  <title>
    sparkassen
  </title>
  <g id="ba86a109-d0c0-4a1a-bef0-8d10b0bb1585" data-name="layer1">
    <g id="a91970fc-f0fb-4c28-ac36-f49c428bd789" data-name="g2488">
      <g style="clip-path:url(#b4757cf0-9fd3-4b97-8bad-426c3a4d14e0)">
        <g id="ebfaaa7a-ca06-4e72-81e9-612639c3d67a" data-name="g2490">
          <g style="clip-path:url(#e84a8444-b9f0-4df6-a3cc-964108435634)">
            <g id="bd542acf-37fc-407d-8fcf-1697333b7921" data-name="g2496">
              <g style="clip-path:url(#bd8856c9-fee7-4150-95b7-25d800917ee3)">
                <g id="e2f32dff-2ffc-4512-a04e-553e72933c9f" data-name="g2502">
                  <path id="ae0ff645-5196-44c5-9127-d9503295ceb0" data-name="path2508" d="M0,61.59V58H41.64V52.55H0V32.6a9,9,0,0,1,9-9h36.3a9,9,0,0,1,9,9v3.61H12.65v5.43H54.38v20a9,9,0,0,1-9,9H9A9,9,0,0,1,0,61.59ZM27.17,0a9,9,0,1,1-9.09,9,9,9,0,0,1,9.09-9" transform="translate(0 0)" style="fill:#ed1c24"/>
                  <path id="a671a68e-dbe4-4843-998f-e363a4a58734" data-name="path2510" d="M92.78,70.63h-9.6V38.08h9.6c9.28,0,14.8,5.48,14.8,16.3S102,70.63,92.78,70.63Zm0-28.66h-5V66.75h5c6.09,0,9.69-4.13,9.69-12.37S98.92,42,92.83,42" transform="translate(0 0)" style="fill:#ed1c24"/>
                  <path id="a047b6a1-ec6e-4b46-bc12-7ae87e1e84d0" data-name="path2512" d="M114.89,70.63V50.3c-.84-.14-2.2-.32-3.09-.37v-3h7.63v23.7Zm1.73-28.38a2.84,2.84,0,1,1,2.95-2.81,2.93,2.93,0,0,1-2.95,2.81" transform="translate(0 0)" style="fill:#ed1c24"/>
                  <path id="e24de831-9881-4562-a946-612e907e3e96" data-name="path2514" d="M138.73,51.1A6.66,6.66,0,0,0,132,57.8V70.63h-4.54V46.93h4.36l.09,4.5c1.31-2.72,3.65-4.64,6.7-4.64a11.35,11.35,0,0,1,1.78.14v4.31a11,11,0,0,0-1.64-.14" transform="translate(0 0)" style="fill:#ed1c24"/>
                  <path id="a11b9b03-a1a1-4cb5-83e6-33b7c99be190" data-name="path2516" d="M163.13,60.19H148c.38,4.78,2.63,7.4,7.17,7.4a23.69,23.69,0,0,0,5.67-.75l.89,3.47a24.39,24.39,0,0,1-7.22.88c-7.21,0-11.33-4.82-11.33-12.36s3.7-12.46,10.49-12.46c6.32,0,9.56,3.93,9.56,11.05C163.23,58.41,163.18,59.39,163.13,60.19Zm-4.68-4.36c0-3.89-1.55-6.13-4.87-6.13-3.56,0-5.39,2.67-5.67,7.21h10.54V55.83" transform="translate(0 0)" style="fill:#ed1c24"/>
                  <path id="a0137434-318c-4cf4-a536-66b57446e512" data-name="path2518" d="M183.79,70.63A81.32,81.32,0,0,0,174.09,59V70.63h-4.54V36.21h4.54v19.9l8.85-9.18h5.49l-10,10.26c3.93,3.42,8,8.71,11.05,13.44h-5.71" transform="translate(0 0)" style="fill:#ed1c24"/>
                  <path id="b5d6d670-4500-45eb-8e26-d5f80b646a65" data-name="path2520" d="M200.79,71.1c-4.73,0-6.65-2.62-6.65-7V50.49h-3.7V46.93h3.7V41.64c1.27-.47,3-1.22,4.54-2v7.3h6.14v3.56h-6.14V63.56c0,2.72.94,3.89,3.38,3.89a12.32,12.32,0,0,0,3.09-.42l.8,3.37a19.16,19.16,0,0,1-5.16.7" transform="translate(0 0)" style="fill:#ed1c24"/>
                  <path id="b320b17d-f614-457b-8ecd-99708a836215" data-name="path2522" d="M222.48,70.63h-3.94A230,230,0,0,1,206.6,38.08h5.11a230.35,230.35,0,0,0,8.89,26.23,246.7,246.7,0,0,0,8.9-26.23h4.92a230,230,0,0,1-11.94,32.55" transform="translate(0 0)" style="fill:#ed1c24"/>
                  <path id="e4f6f9cd-384a-4112-9388-203d6c6d2557" data-name="path2524" d="M255.36,60.19H240.23c.37,4.78,2.62,7.4,7.17,7.4a23.69,23.69,0,0,0,5.67-.75l.88,3.47a24.27,24.27,0,0,1-7.21.88c-7.21,0-11.33-4.82-11.33-12.36s3.7-12.46,10.49-12.46c6.32,0,9.55,3.93,9.55,11.05C255.45,58.41,255.41,59.39,255.36,60.19Zm-4.68-4.36c0-3.89-1.55-6.13-4.87-6.13-3.56,0-5.39,2.67-5.67,7.21h10.54V55.83" transform="translate(0 0)" style="fill:#ed1c24"/>
                  <path id="a22e6614-cf0d-48a8-a518-acf5a417b688" data-name="path2526" d="M273.07,51.1a6.65,6.65,0,0,0-6.75,6.7V70.63h-4.54V46.93h4.36l.09,4.5c1.31-2.72,3.65-4.64,6.69-4.64a11.52,11.52,0,0,1,1.79.14v4.31a11,11,0,0,0-1.64-.14" transform="translate(0 0)" style="fill:#ed1c24"/>
                  <path id="bf6c19b6-4c98-4cb3-a9f2-38fe416d21a7" data-name="path2528" d="M285.76,71.1a20.21,20.21,0,0,1-8.44-1.64L278.54,66a18,18,0,0,0,6.94,1.41c3.84,0,5.25-1.22,5.25-3.23,0-2.44-2.77-3-6-4.08-3.84-1.26-6.7-2.62-6.7-6.74,0-4.5,3.51-6.94,8.76-6.94a24.44,24.44,0,0,1,7.07.94v3.75a21,21,0,0,0-6.79-1.08c-3.14,0-4.59,1-4.59,3s2.15,2.62,5.71,3.75c4.27,1.31,7.17,2.76,7.17,7.17,0,4.82-3.79,7.16-9.6,7.16" transform="translate(0 0)" style="fill:#ed1c24"/>
                  <path id="fca298f4-0909-409c-8f89-b2543da3bce1" data-name="path2530" d="M302,70.63V50.3c-.84-.14-2.2-.32-3.09-.37v-3h7.63v23.7Zm1.73-28.38a2.84,2.84,0,1,1,3-2.81,2.93,2.93,0,0,1-3,2.81" transform="translate(0 0)" style="fill:#ed1c24"/>
                  <path id="b8a75353-2fda-4807-a428-9a90337737e3" data-name="path2532" d="M324.64,71c-7.17,0-11.15-4.59-11.15-12.18s4.07-12.27,11.33-12.27a18,18,0,0,1,5.81.84v3.75a19.18,19.18,0,0,0-5-.8c-4.77,0-7.3,2.62-7.3,8.43s2.39,8.39,7,8.39a15.29,15.29,0,0,0,5.06-.85l1.07,3.57A19.9,19.9,0,0,1,324.64,71" transform="translate(0 0)" style="fill:#ed1c24"/>
                  <path id="aa64c535-79a8-4024-bd77-a0c689678242" data-name="path2534" d="M351.43,70.63V55.5c0-3.56-1.5-5.15-4.55-5.15a6.22,6.22,0,0,0-5.95,6.51V70.63h-4.54V36.21h4.54V50.07c1.36-2.15,3.8-3.61,7.36-3.61,4.92,0,7.68,2.91,7.68,7.73V70.63h-4.54" transform="translate(0 0)" style="fill:#ed1c24"/>
                  <path id="a790eb2d-102d-4f3f-b1fc-06db3ff57d76" data-name="path2536" d="M382.39,60.19H367.26c.37,4.78,2.62,7.4,7.17,7.4a23.53,23.53,0,0,0,5.66-.75l.89,3.47a24.27,24.27,0,0,1-7.21.88c-7.21,0-11.34-4.82-11.34-12.36s3.7-12.46,10.5-12.46c6.32,0,9.55,3.93,9.55,11.05C382.48,58.41,382.44,59.39,382.39,60.19Zm-4.69-4.36c0-3.89-1.54-6.13-4.87-6.13-3.55,0-5.38,2.67-5.66,7.21H377.7V55.83" transform="translate(0 0)" style="fill:#ed1c24"/>
                  <path id="a0d2e44a-1483-4077-ad3a-8576d8481b0e" data-name="path2538" d="M400.09,51.1a6.65,6.65,0,0,0-6.74,6.7V70.63h-4.54V46.93h4.35l.09,4.5c1.32-2.72,3.66-4.64,6.7-4.64a11.35,11.35,0,0,1,1.78.14v4.31a10.69,10.69,0,0,0-1.64-.14" transform="translate(0 0)" style="fill:#ed1c24"/>
                  <path id="e651512f-ff7e-4297-ac0a-4a0220cc3f43" data-name="path2540" d="M421.22,70.63l-.05-3.32a8.42,8.42,0,0,1-7.49,3.79c-4.87,0-7.63-2.62-7.63-7.82V46.93h4.54V62.3c0,3.51,1.45,5,4.49,5a6.25,6.25,0,0,0,6-6.51V46.93h4.54v23.7h-4.4" transform="translate(0 0)" style="fill:#ed1c24"/>
                  <path id="e04190ab-2d08-4810-92ba-d3cdcdec0613" data-name="path2542" d="M448.34,70.63V55.5c0-3.56-1.5-5.15-4.54-5.15-3.33,0-5.95,2.9-5.95,6.51V70.63H433.3V46.93h4.36l.09,3.33a8.44,8.44,0,0,1,7.45-3.8c4.92,0,7.68,2.91,7.68,7.73V70.63h-4.54" transform="translate(0 0)" style="fill:#ed1c24"/>
                  <path id="ac87eb22-9ec6-4fbe-9a67-4f591afe54b1" data-name="path2544" d="M477.47,78c-1.78,1.73-4.49,2.57-7.92,2.57a30.57,30.57,0,0,1-7.35-.84l.7-3.47a22.82,22.82,0,0,0,5.72.75c4.73,0,6.89-2,6.89-6V67.31a7.41,7.41,0,0,1-6.8,3.47c-5.43,0-9.37-3.52-9.37-12,0-7.86,4.32-12.32,9.7-12.32A8.32,8.32,0,0,1,475.55,49l.09-2H480V70.68C480,74.06,479.11,76.35,477.47,78Zm-2-25.44a6.75,6.75,0,0,0-5.15-2.25c-3.55,0-6,3.1-6,8.48,0,4.41,1.12,8.34,5.58,8.34,3.46,0,5.61-3,5.61-7.45V52.55" transform="translate(0 0)" style="fill:#ed1c24"/>
                </g>
              </g>
            </g>
          </g>
        </g>
      </g>
    </g>
  </g>
</svg>
