<svg xmlns="http://www.w3.org/2000/svg" xmlns:xlink="http://www.w3.org/1999/xlink" viewBox="0 0 82.65 42.52">
  <defs>
    <clipPath id="b">
      <path fill="none" d="M26.52 27.47c-4.2-1.25-6.07-3.29-6.9-4.79a8.2 8.2 0 0 1 0-7.16 5.5 5.5 0 0 1 1-1.42 2.22 2.22 0 0 1 1.58-.74 5.64 5.64 0 0 1 3.06 1.52l.17.13 1.41 1.18A1.65 1.65 0 0 0 29 13.74a2.16 2.16 0 0 0-.55-.36l-1.63-.8c-.84-.45-1.66-1.29-1.6-2a1.47 1.47 0 0 1 .49-.88 5.13 5.13 0 0 1 1.56-1l3.94-1.84.25-.12a2 2 0 0 0 .34-.26 1.67 1.67 0 0 0-2.13-2.58l-1.91 1.41a10.4 10.4 0 0 1-5.83 2.05C9.8 27 26.93 27.59 26.52 27.47"/>
    </clipPath>
    <clipPath id="c">
      <path fill="none" d="M39.51 36.11a3.31 3.31 0 0 1-3.77.64L23 30.49a12.35 12.35 0 0 0-4.83-1.23 3.6 3.6 0 0 0-2.65.94 3.17 3.17 0 0 0-.87 1.9c0 .07-.62 6.69-.62 6.74a4.08 4.08 0 1 1-7.53-2.52l.13-.2 2.51-3.71.49-.74c1.52-2.24 2-4.08 1.48-5.47-.67-1.74-1.58-2.39-3.62-2.61L1.71 23a1.91 1.91 0 0 1-1.28-3.28A1.87 1.87 0 0 1 2 19.17h.2l7.44 1a5.84 5.84 0 0 0 4.45-1.87 9 9 0 0 0 1.25-1.58 12.57 12.57 0 0 0 1.32-4.49v-.15a12.15 12.15 0 0 0-1.42-6l-.08-.18-1.73-3.34a4.14 4.14 0 0 1-.23-.51 1.57 1.57 0 0 1 .43-1.57 1.65 1.65 0 0 1 2.37 0 1.56 1.56 0 0 1 .39.64l1.29 3.68a4.18 4.18 0 0 0 4.25 2.56 10.42 10.42 0 0 0 5.83-2.05l1.91-1.41a1.67 1.67 0 0 1 2.11 2.56 2.51 2.51 0 0 1-.34.26l-.25.12-3.94 1.84a5.13 5.13 0 0 0-1.56 1 1.47 1.47 0 0 0-.49.88c-.06.72.76 1.56 1.59 2l1.64.8a2.35 2.35 0 0 1 .55.36 1.65 1.65 0 0 1-2.19 2.45L25.38 15l-.17-.13a5.74 5.74 0 0 0-3.06-1.52 2.21 2.21 0 0 0-1.58.74 5.5 5.5 0 0 0-1 1.42 8.2 8.2 0 0 0 0 7.16c.86 1.55 2.82 3.67 7.31 4.91l11.09 3a3.29 3.29 0 0 1 1.49.86 3.33 3.33 0 0 1 0 4.69M9.27 16.51a2.67 2.67 0 0 0 .79-.13 2.61 2.61 0 0 0-.82-5.09 2.72 2.72 0 0 0-.79.13 2.59 2.59 0 0 0-1.52 1.29 2.61 2.61 0 0 0 2.34 3.8z"/>
    </clipPath>
    <linearGradient id="a" x1="-380.18" x2="-379.66" y1="613.07" y2="613.07" gradientTransform="matrix(-53.47 0 0 53.47 -20278.03 -32756.31)" gradientUnits="userSpaceOnUse">
      <stop offset="0" stop-color="#faa746"/>
      <stop offset="1" stop-color="#e68139"/>
    </linearGradient>
    <clipPath id="d">
      <path fill="none" d="M7.08 41.33A4.08 4.08 0 0 0 14 38.84c0-.05.61-6.67.62-6.74a3.17 3.17 0 0 1 .87-1.9 3.6 3.6 0 0 1 2.65-.94A12.39 12.39 0 0 1 23 30.49l2.51 1.23c-14-10.29-11.77.07-12.08 3.57-.84 9.4-6.43 1.32-6.93 1a4.06 4.06 0 0 0 .59 5"/>
    </clipPath>
    <linearGradient id="e" x1="-362.92" x2="-362.4" y1="645.66" y2="645.66" gradientTransform="matrix(9.25 0 0 -9.25 3352.16 5990.67)" xlink:href="#a"/>
    <clipPath id="f">
      <path fill="none" d="M35.74 36.75a3.31 3.31 0 0 0 3.77-5.33 3.09 3.09 0 0 0-.6-.48c1.4 6.77-6.32 4.27-6.33 4.26l3.13 1.54"/>
    </clipPath>
    <linearGradient id="g" x1="-369.94" x2="-369.42" y1="637.51" y2="637.51" gradientTransform="matrix(14.54 0 0 -14.54 5396.28 9287.74)" xlink:href="#a"/>
    <clipPath id="h">
      <path fill="none" d="M2.35 22.27C.69 22.31 0 20.4 0 20.38A1.91 1.91 0 0 0 1.71 23l5.77.61c2 .22 2.95.87 3.62 2.61a1.43 1.43 0 0 1 .09.27C10.9 22 4 22.23 2.35 22.27"/>
    </clipPath>
    <linearGradient id="i" x1="-365.95" x2="-365.43" y1="638.86" y2="638.86" gradientTransform="matrix(10.88 0 0 -10.88 3985.24 6969.09)" xlink:href="#a"/>
  </defs>
  <path fill="#6d6e71" d="M42 20.48a37.52 37.52 0 0 1-4 8.15h-.66c-1 0-1.54-.37-2.22-1.41a35.71 35.71 0 0 1-4.49-12.9h1.83a2.06 2.06 0 0 1 2 1.68 30.23 30.23 0 0 0 2.61 8.25 35.84 35.84 0 0 0 3-9.93h1.44c1.17 0 1.6.52 1.6 1.68A20 20 0 0 1 42 20.48M49.43 22.92H47.2a3.58 3.58 0 0 0 3.8 2.91 6 6 0 0 0 4.18-1.34h.13v1.1c0 1.81-1.2 3.2-4.94 3.2a6.86 6.86 0 0 1-6.72-7.11C43.68 17 46.47 14 50.37 14a5.36 5.36 0 0 1 5.47 5.48c0 2.6-1.9 3.44-6.41 3.44m.64-6a3 3 0 0 0-2.87 3v.48h1.5c3.22 0 3.95-.37 3.95-1.37 0-1.38-1.01-2.09-2.58-2.09zM65.14 17.75a4.79 4.79 0 0 0-2-.42c-1.52 0-2.35.87-2.35 3v8.12h-.94c-1.52 0-2.48-.78-2.48-2.25v-6.5c0-2.83 1.44-5.53 5-5.53 2.1 0 2.83 1.23 2.83 2.3v1.26h-.12M67.62 12.09a2.38 2.38 0 0 1 1.6-1H70v3.2h4.73v1.44a1.83 1.83 0 0 1-2 1.68H70V23c0 1.83.78 2.54 2.15 2.54a4.74 4.74 0 0 0 2.46-.5h.12v1.26c0 1.44-1 2.36-3 2.36-3.44 0-5.11-1.94-5.11-5.24v-8.5a3.6 3.6 0 0 1 1-2.8M80.63 28.6c-2.64 0-4.08-1.54-4.08-4.4v-9.57h1c1.52 0 2.43.84 2.43 2.63v6.6c0 1.42.58 1.86 2.08 1.86h.63v.76c0 1.52-.58 2.12-2 2.12"/>
  <path fill="#faa746" d="M39.51 36.11a3.31 3.31 0 0 1-3.77.64L23 30.49a12.35 12.35 0 0 0-4.83-1.23 3.6 3.6 0 0 0-2.65.94 3.17 3.17 0 0 0-.87 1.9c0 .07-.62 6.69-.62 6.74a4.08 4.08 0 1 1-7.53-2.52l.13-.2 2.51-3.71.49-.74c1.52-2.24 2-4.08 1.48-5.47-.67-1.74-1.58-2.4-3.62-2.61L1.71 23a1.91 1.91 0 0 1-1.28-3.28A1.87 1.87 0 0 1 2 19.17h.2l7.44 1a5.84 5.84 0 0 0 4.45-1.87 9 9 0 0 0 1.25-1.58 12.57 12.57 0 0 0 1.32-4.49v-.15a12.15 12.15 0 0 0-1.42-6l-.08-.18-1.73-3.34a4.14 4.14 0 0 1-.23-.51 1.57 1.57 0 0 1 .43-1.57 1.65 1.65 0 0 1 2.37 0 1.59 1.59 0 0 1 .39.63l1.29 3.69a4.18 4.18 0 0 0 4.25 2.56 10.42 10.42 0 0 0 5.83-2.05l1.91-1.41a1.67 1.67 0 0 1 2.11 2.56 2.51 2.51 0 0 1-.34.26l-.25.12-3.94 1.84a5.13 5.13 0 0 0-1.56 1 1.47 1.47 0 0 0-.49.88c-.06.72.76 1.56 1.59 2l1.64.8a2.35 2.35 0 0 1 .55.36 1.65 1.65 0 0 1-2.19 2.45L25.38 15l-.17-.13a5.67 5.67 0 0 0-3.06-1.52 2.21 2.21 0 0 0-1.58.74 5.5 5.5 0 0 0-1 1.42 8.2 8.2 0 0 0 0 7.16c.86 1.55 2.82 3.67 7.31 4.91l11.09 3a3.29 3.29 0 0 1 1.49.86 3.33 3.33 0 0 1 0 4.69M9.27 16.51a2.67 2.67 0 0 0 .79-.13 2.61 2.61 0 0 0-.82-5.09 2.67 2.67 0 0 0-.79.13 2.59 2.59 0 0 0-1.52 1.29 2.61 2.61 0 0 0 2.34 3.8z"/>
  <g clip-path="url(#b)">
    <g clip-path="url(#c)">
      <path fill="url(#a)" d="M-9.53-8.38h59.55v59.51H-9.53z" transform="rotate(-45.78 20.245 21.385)"/>
    </g>
  </g>
  <g clip-path="url(#d)">
    <g clip-path="url(#c)">
      <path fill="url(#e)" d="M-9.52-8.39h59.54v59.54H-9.52z" transform="rotate(-45 20.247 21.383)"/>
    </g>
  </g>
  <g clip-path="url(#f)">
    <g clip-path="url(#c)">
      <path fill="url(#g)" d="M-9.52-8.39h59.54v59.54H-9.52z" transform="rotate(-45 20.247 21.383)"/>
    </g>
  </g>
  <g clip-path="url(#h)">
    <g clip-path="url(#c)">
      <path fill="url(#i)" d="M-9.52-8.39h59.54v59.54H-9.52z" transform="rotate(-45 20.247 21.383)"/>
    </g>
  </g>
  <path fill="#faa746" d="M78.22 9.21a2.08 2.08 0 1 0 2.08 2.07 2.08 2.08 0 0 0-2.08-2.07"/>
</svg>
