<?xml version="1.0" standalone="no"?>
<!DOCTYPE svg PUBLIC "-//W3C//DTD SVG 20010904//EN"
 "http://www.w3.org/TR/2001/REC-SVG-20010904/DTD/svg10.dtd">
<svg version="1.0" xmlns="http://www.w3.org/2000/svg"
 width="81.000000pt" height="81.000000pt" viewBox="0 0 81.000000 81.000000"
 preserveAspectRatio="xMidYMid meet">
<metadata>
Created by potrace 1.11, written by Peter Selinger 2001-2013
</metadata>
<g transform="translate(0.000000,81.000000) scale(0.100000,-0.100000)"
fill="#000000" stroke="none">
<path d="M333 794 c-47 -24 -63 -67 -63 -168 l0 -86 -86 0 c-58 0 -97 -5 -119
-16 -86 -40 -86 -198 0 -238 22 -11 61 -16 119 -16 l86 0 0 -88 c0 -100 11
-130 57 -162 27 -19 42 -22 86 -17 101 9 127 47 127 181 l0 86 91 0 c68 0 98
4 120 17 82 49 76 201 -10 241 -14 7 -64 12 -112 12 l-87 0 -4 100 c-3 97 -4
101 -35 131 -26 27 -41 33 -85 36 -36 2 -63 -2 -85 -13z"/>
</g>
</svg>
